<svg width="220" height="220" viewBox="0 0 220 220" fill="none" xmlns="http://www.w3.org/2000/svg">
<rect width="220" height="220" fill="white"/>
<path d="M68.4801 32.5V102H57.0801V32.5H68.4801ZM172.047 53.2C172.047 56.7333 171.214 60.0667 169.547 63.2C167.881 66.3333 165.214 68.9 161.547 70.9C157.881 72.8333 153.181 73.8 147.447 73.8H134.847V102H123.447V32.5H147.447C152.781 32.5 157.281 33.4333 160.947 35.3C164.681 37.1 167.447 39.5667 169.247 42.7C171.114 45.8333 172.047 49.3333 172.047 53.2ZM147.447 64.5C151.781 64.5 155.014 63.5333 157.147 61.6C159.281 59.6 160.347 56.8 160.347 53.2C160.347 45.6 156.047 41.8 147.447 41.8H134.847V64.5H147.447Z" fill="#021521"/>
<path d="M87.1559 120.5V129.8H68.6559V190H57.2559V129.8H38.6559V120.5H87.1559ZM135.001 120.5V164.8C135.001 170.067 136.368 174.033 139.101 176.7C141.901 179.367 145.768 180.7 150.701 180.7C155.701 180.7 159.568 179.367 162.301 176.7C165.101 174.033 166.501 170.067 166.501 164.8V120.5H177.901V164.6C177.901 170.267 176.668 175.067 174.201 179C171.735 182.933 168.435 185.867 164.301 187.8C160.168 189.733 155.601 190.7 150.601 190.7C145.601 190.7 141.035 189.733 136.901 187.8C132.835 185.867 129.601 182.933 127.201 179C124.801 175.067 123.601 170.267 123.601 164.6V120.5H135.001Z" fill="#021521"/>
<path d="M12 12H208V208H12V12Z" stroke="#021521" stroke-width="4"/>
</svg>
