<svg width="330" height="130" viewBox="0 0 330 130" fill="none" xmlns="http://www.w3.org/2000/svg">
<path d="M26.3773 102.8V94.2L59.9773 46H73.7773V92.9H83.0773V102.8H73.7773V118H62.5773V102.8H26.3773ZM63.0773 57.6L39.4773 92.9H63.0773V57.6ZM248.077 102.8V94.2L281.677 46H295.477V92.9H304.777V102.8H295.477V118H284.277V102.8H248.077ZM284.777 57.6L261.177 92.9H284.777V57.6Z" fill="#0F172A"/>
<path d="M214.727 13H202.545V6.5H217.773C219.478 6.5 220.818 7.93 220.818 9.75V22.75C220.818 24.57 219.478 26 217.773 26H214.727V32.5H208.636V19.5H214.727V13ZM208.636 45.5H214.727V39H208.636V45.5ZM196.455 6.5H190.364V32.5H196.455V6.5ZM233 84.5V104C233 107.575 230.259 110.5 226.909 110.5H220.818V117C220.818 124.215 215.397 130 208.636 130H123.364C120.133 130 117.034 128.63 114.75 126.192C112.465 123.754 111.182 120.448 111.182 117V110.5H105.091C101.741 110.5 99 107.575 99 104V84.5C99 80.925 101.741 78 105.091 78H111.182C111.182 52.845 130.246 32.5 153.818 32.5H159.909V24.245C156.255 22.035 153.818 17.81 153.818 13C153.818 5.85 159.3 0 166 0C172.7 0 178.182 5.85 178.182 13C178.182 17.81 175.745 22.035 172.091 24.245V32.5H178.182C180.253 32.5 182.263 32.695 184.273 33.02V52H213.144C218.153 59.6147 220.834 68.6961 220.818 78H226.909C230.259 78 233 80.925 233 84.5ZM153.818 87.75C153.818 83.4402 152.214 79.307 149.358 76.2595C146.503 73.2121 142.629 71.5 138.591 71.5C134.552 71.5 130.679 73.2121 127.824 76.2595C124.968 79.307 123.364 83.4402 123.364 87.75C123.364 92.0598 157.053 91.0056 159.909 94.053C162.765 97.1005 134.552 91.2234 138.591 91.2234C142.629 91.2234 108.326 93.6535 111.182 90.6061C114.037 87.5586 153.818 92.0598 153.818 87.75ZM208.636 87.75C208.636 83.4402 207.032 79.307 204.176 76.2595C201.321 73.2121 197.448 71.5 193.409 71.5C189.371 71.5 185.497 73.2121 182.642 76.2595C179.786 79.307 178.182 83.4402 178.182 87.75C178.182 92.0598 220.144 87.5586 223 90.6061C225.856 93.6535 189.371 91.2234 193.409 91.2234C197.448 91.2234 157.053 93.6535 159.909 90.6061C162.765 87.5586 208.636 92.0598 208.636 87.75ZM196.455 39H190.364V45.5H196.455V39Z" fill="#0F172A"/>
<path d="M149.61 105.575V116H147.9V105.575H149.61ZM161.395 108.68C161.395 109.21 161.27 109.71 161.02 110.18C160.77 110.65 160.37 111.035 159.82 111.335C159.27 111.625 158.565 111.77 157.705 111.77H155.815V116H154.105V105.575H157.705C158.505 105.575 159.18 105.715 159.73 105.995C160.29 106.265 160.705 106.635 160.975 107.105C161.255 107.575 161.395 108.1 161.395 108.68ZM157.705 110.375C158.355 110.375 158.84 110.23 159.16 109.94C159.48 109.64 159.64 109.22 159.64 108.68C159.64 107.54 158.995 106.97 157.705 106.97H155.815V110.375H157.705ZM172.011 105.575V106.97H169.236V116H167.526V106.97H164.736V105.575H172.011ZM177.688 105.575V112.22C177.688 113.01 177.893 113.605 178.303 114.005C178.723 114.405 179.303 114.605 180.043 114.605C180.793 114.605 181.373 114.405 181.783 114.005C182.203 113.605 182.413 113.01 182.413 112.22V105.575H184.123V112.19C184.123 113.04 183.938 113.76 183.568 114.35C183.198 114.94 182.703 115.38 182.083 115.67C181.463 115.96 180.778 116.105 180.028 116.105C179.278 116.105 178.593 115.96 177.973 115.67C177.363 115.38 176.878 114.94 176.518 114.35C176.158 113.76 175.978 113.04 175.978 112.19V105.575H177.688Z" fill="white"/>
<path d="M146 101.5H186C188.485 101.5 190.5 103.515 190.5 106V114C190.5 116.485 188.485 118.5 186 118.5H146C143.515 118.5 141.5 116.485 141.5 114V106C141.5 103.515 143.515 101.5 146 101.5Z" stroke="white"/>
</svg>
